<svg xmlns="http://www.w3.org/2000/svg" viewBox="0 0 200 200" width="200" height="200">
  <!-- Background Circle -->
  <circle cx="100" cy="100" r="95" fill="#667eea" opacity="0.1"/>
  
  <!-- Main Circle Border -->
  <circle cx="100" cy="100" r="90" fill="none" stroke="#667eea" stroke-width="3"/>
  
  <!-- Inner Design - Represents India Map Outline -->
  <path d="M 100 30 L 110 40 L 120 35 L 130 45 L 125 55 L 135 65 L 130 75 L 140 85 L 135 95 L 140 105 L 130 115 L 125 125 L 115 130 L 105 135 L 95 130 L 85 125 L 75 115 L 70 105 L 75 95 L 70 85 L 80 75 L 75 65 L 85 55 L 80 45 L 90 35 L 100 30 Z" 
        fill="#667eea" opacity="0.2"/>
  
  <!-- Map Pin Icon -->
  <g transform="translate(100, 70)">
    <!-- Pin Circle -->
    <circle cx="0" cy="0" r="15" fill="#667eea"/>
    <circle cx="0" cy="0" r="5" fill="white"/>
    <!-- Pin Bottom -->
    <path d="M -8 15 Q 0 28 8 15 Z" fill="#667eea"/>
  </g>
  
  <!-- Wheat/Agriculture Symbol (Left) -->
  <g transform="translate(50, 100)">
    <path d="M 0 0 L -2 10 L 0 20 L 2 10 Z" fill="#f59e0b" stroke="#f59e0b" stroke-width="1"/>
    <ellipse cx="-5" cy="5" rx="3" ry="2" fill="#f59e0b"/>
    <ellipse cx="5" cy="5" rx="3" ry="2" fill="#f59e0b"/>
    <ellipse cx="-5" cy="15" rx="3" ry="2" fill="#f59e0b"/>
    <ellipse cx="5" cy="15" rx="3" ry="2" fill="#f59e0b"/>
  </g>
  
  <!-- Tools Symbol (Right) -->
  <g transform="translate(150, 100)">
    <rect x="-2" y="-10" width="4" height="25" fill="#10b981" rx="2"/>
    <polygon points="0,-10 -8,-18 8,-18" fill="#10b981"/>
  </g>
  
  <!-- Text MGNREGA -->
  <text x="100" y="165" font-family="Arial, sans-serif" font-size="18" font-weight="bold" text-anchor="middle" fill="#667eea">
    MGNREGA
  </text>
  
  <!-- Decorative Circle Elements -->
  <circle cx="35" cy="35" r="3" fill="#667eea" opacity="0.3"/>
  <circle cx="165" cy="35" r="3" fill="#667eea" opacity="0.3"/>
  <circle cx="35" cy="165" r="3" fill="#667eea" opacity="0.3"/>
  <circle cx="165" cy="165" r="3" fill="#667eea" opacity="0.3"/>
</svg>
